<svg xmlns="http://www.w3.org/2000/svg" width="799.87" height="772.566" viewBox="0 0 799.87 772.566" xmlns:xlink="http://www.w3.org/1999/xlink" role="img" artist="Katerina Limpitsouni" source="https://undraw.co/"><g transform="translate(-743.752 -145.648)"><circle cx="55.255" cy="55.255" r="55.255" transform="translate(1115.643 419.962)" fill="#6c63ff"/><path d="M437.817,539.519a5.731,5.731,0,0,1-3.448-1.145l-.062-.046-12.985-9.942a5.769,5.769,0,1,1,7.018-9.159l8.411,6.449,19.876-25.922a5.769,5.769,0,0,1,8.088-1.068l-.124.168.127-.165a5.775,5.775,0,0,1,1.068,8.088l-23.379,30.49a5.772,5.772,0,0,1-4.59,2.251Z" transform="translate(727.604 -43.222)" fill="#fff"/><path d="M375.445,239.583,339.974,360.835a26.586,26.586,0,0,0,23.2,33.95l38.706,3.388L375.445,239.583Z" transform="translate(426.766 323.724)" fill="#f2f2f2"/><path d="M375.445,239.583,339.974,360.835a26.586,26.586,0,0,0,23.2,33.95l38.706,3.388L375.445,239.583Z" transform="translate(426.766 323.724)" opacity="0.1"/><path d="M827.435,181.04l-47.446,78.467-22.34-28.3,43.66-68.356c-1.551-7.953.327-17.183,5.878-25.155,9.712-13.948,26.942-18.739,38.486-10.7s13.028,25.86,3.316,39.808c-5.551,7.971-13.556,12.935-21.553,14.24Z" transform="translate(296.726 359.897)" fill="#ffb6b6"/><path d="M415.322,483.036l-5.7,19.378.193,19.649s-37.475,45.073-23.669,142.564l175.591-2.2L540.822,505.55l-125.5-22.514Z" transform="translate(413.04 248.121)" fill="#090814"/><path d="M458.5,71.131a49.8,49.8,0,1,1,64.714,47.519l-7.424,5.982,13.328,46.649-15.531,10.987-49.074-40.894s10.6-13.5,16.287-28.729a49.741,49.741,0,0,1-22.3-41.513Z" transform="translate(389.622 391.497)" fill="#ffb6b6"/><path d="M676.078,199.937C658.5,199.669,626,256.087,626,256.087l-26.7-9.441L544.4,227.208l-42.079-17.319.185,1.272c-.166-.4-.346-.8-.544-1.208-4.424-9.115-17.274-19.84-53.756-17.714L431.024,205.8l-2.336,1.858a52.982,52.982,0,0,0-21.64,3.371c-7.814,3.141-15.627,9-19.323,19.955-1.915,5.65-1.915,17.332-.766,32.173,4.156,53.737,23.524,167.975,23.524,167.975l122.271-16.186,9.02.211s1.072-12.314,2.03-28.439c.594-9.461,1.13-20.2,1.436-30.546.211-7.584.268-14.938.134-21.41-.019-.4-.019-.8-.038-1.207-.364-11.816-1.551-20.376-4.1-21.314,0,0,7.909-.211,19.323-.632,27.577-1.034,75.646-3.352,82.5-7.086,9.69-5.267,60.5-75.952,60.5-75.952s-9.882-28.343-27.481-28.631Z" transform="translate(412.083 338.51)" fill="#e6e6e6"/><path d="M540.308,68.181c-3.761-18.4-5.566-27.829-19.238-40.847-3.245.459.857,17.286-17.031,40.726-26,34.074-23.41,2.832-31.1,13.328-1.669,2.279-2.03,10.5-1.481,13.328,2.168,11.176,15,.263,1.481,38.5-2.011,2.974-4.381,2.251-7.4,2.221-.234,0,1.3-.3-4.443-1.481-2.741-.566-6.577-1.234-11.176-2.009-53.425-9-72.29-76.412-31-111.484,9.4-7.98,18.616-14.027,26.621-16.829,24.112-8.44,79.049-2.954,89.6,24.435a83.887,83.887,0,0,1,5.169,40.106Z" transform="translate(408.879 398.122)" fill="#010102"/><ellipse cx="38.104" cy="38.104" rx="38.104" ry="38.104" transform="translate(801.049 498.308)" fill="#010102"/><path d="M302.041,751.2H1.3c-.776-.138-1.35-1.7-1.3-3.5-.05-1.782.523-3.347,1.3-3.485H302.041c.684.195,1.224,1.449,1.308,3.034C303.458,749.182,302.877,750.943,302.041,751.2Z" transform="translate(743.752 167.016)" fill="#e6e6e6"/><g transform="translate(1233.109 145.648)"><circle cx="11.973" cy="11.973" r="11.973" transform="translate(185.342 150.205)" fill="#6c63ff"/><path d="M765.528,411.457a1.241,1.241,0,0,1-.747-.248l-.013-.01-2.814-2.154a1.25,1.25,0,1,1,1.521-1.985l1.822,1.4,4.307-5.617a1.25,1.25,0,0,1,1.753-.231l-.027.036.028-.036a1.251,1.251,0,0,1,.231,1.753l-5.066,6.607a1.25,1.25,0,0,1-.995.488Z" transform="translate(-569.4 -244.712)" fill="#fff"/><circle cx="11.973" cy="11.973" r="11.973" transform="translate(185.342 185.203)" fill="#6c63ff"/><path d="M765.528,449.457a1.242,1.242,0,0,1-.747-.248l-.013-.01-2.814-2.154a1.25,1.25,0,1,1,1.521-1.985l1.822,1.4,4.307-5.617a1.25,1.25,0,0,1,1.753-.231l-.027.036.028-.036a1.252,1.252,0,0,1,.231,1.753l-5.066,6.607a1.25,1.25,0,0,1-.995.488Z" transform="translate(-569.4 -247.714)" fill="#fff"/><circle cx="11.973" cy="11.973" r="11.973" transform="translate(191.789 225.726)" fill="#6c63ff"/><path d="M772.528,493.457a1.241,1.241,0,0,1-.747-.248l-.013-.01-2.814-2.154a1.25,1.25,0,1,1,1.521-1.985l1.822,1.4,4.307-5.617a1.25,1.25,0,0,1,1.753-.231l-.027.036.027-.036a1.252,1.252,0,0,1,.231,1.753l-5.066,6.607a1.251,1.251,0,0,1-.995.488Z" transform="translate(-569.953 -251.191)" fill="#fff"/><path d="M837.566,505.365c-.1,0-.167,0-.189,0h.189v-1.8h-.145c.284.01,6.087.174,11.433-6.313,7.967-9.668,14.509-33.6.434-92.715-18.925-79.487-3.141-149.71,4.524-176.212a8.8,8.8,0,0,0-8.466-11.235H662.566a8.839,8.839,0,0,0-7.128,3.628c-3.247,4.466-7.7,13.047-10.491,28.562l-1.776-.319c2.849-15.852,7.45-24.685,10.808-29.3a10.648,10.648,0,0,1,8.587-4.372h182.78a10.6,10.6,0,0,1,10.2,13.541c-7.625,26.364-23.328,96.223-4.5,175.293,14.273,59.945,7.411,84.4-.858,94.353C844.732,505.032,838.722,505.365,837.566,505.365Z" transform="translate(-548.792 -215.279)" fill="#e6e6e6"/><path d="M794.136,548.794c-.1,0-.167,0-.189,0l-8.785,0v-1.8l8.83,0c.286.009,6.087.174,11.433-6.313,7.967-9.668,14.509-33.6.434-92.715-18.925-79.487-3.141-149.71,4.524-176.212a8.8,8.8,0,0,0-8.466-11.235H619.136a8.839,8.839,0,0,0-7.128,3.628c-3.247,4.467-7.7,13.047-10.491,28.562l-1.776-.319c2.849-15.852,7.45-24.685,10.808-29.3a10.648,10.648,0,0,1,8.587-4.372h182.78a10.6,10.6,0,0,1,10.2,13.541c-7.625,26.364-23.328,96.223-4.5,175.293,14.273,59.945,7.411,84.4-.858,94.353C801.3,548.462,795.293,548.794,794.136,548.794Z" transform="translate(-524.866 -225.2)" fill="#ccc"/><path d="M808.507,531.482c-22.868-96.031-3.795-180.881,5.471-212.895a12.888,12.888,0,0,0-12.387-16.449H579.6a12.922,12.922,0,0,0-10.426,5.3c-8.961,12.323-27.556,53.187-6.787,166.256,11.107,60.49,10.941,101.732,7.313,128.9-2.036,15.3-5.176,26.128-8.022,33.432l-.3.774a12.562,12.562,0,0,0-.921,4.651,12.741,12.741,0,0,0,4.172,9.578,12.2,12.2,0,0,0,2.92,2.026,12.347,12.347,0,0,0,2.791,1.022,12.6,12.6,0,0,0,3.012.359H791.911c.028,0,.1.009.23.009,1.4,0,8.7-.405,15.325-8.381C817.505,633.978,825.84,604.286,808.507,531.482Zm-2.662,113.106c-6.493,7.884-13.538,7.681-13.879,7.672H573.343a10.717,10.717,0,0,1-8.869-4.706,10.469,10.469,0,0,1-1.483-8.685,9.024,9.024,0,0,1,.405-1.253,134.816,134.816,0,0,0,7.193-25.843c5.195-28.32,6.161-72.021-6.051-138.47-20.611-112.231-2.385-152.478,6.4-164.571a10.758,10.758,0,0,1,8.658-4.4H801.59a10.687,10.687,0,0,1,10.278,13.64c-9.311,32.188-28.477,117.481-5.489,214.018C823.473,603.779,815.525,632.845,805.845,644.588Z" transform="translate(-552.922 -236.793)" fill="#3f3d56"/><path d="M705.36,414.175H590.987a8.767,8.767,0,1,1,0-17.533H705.36a8.767,8.767,0,0,1,0,17.533Z" transform="translate(-555.237 -244.26)" fill="#e6e6e6"/><path d="M705.36,455.175H590.987a8.767,8.767,0,0,1,0-17.533H705.36a8.767,8.767,0,1,1,0,17.533Z" transform="translate(-555.237 -247.5)" fill="#e6e6e6"/><path d="M715.36,497.175H600.987a8.767,8.767,0,1,1,0-17.533H715.36a8.767,8.767,0,1,1,0,17.533Z" transform="translate(-556.027 -250.819)" fill="#e6e6e6"/><path d="M722.36,541.175H607.987a8.767,8.767,0,1,1,0-17.533H722.36a8.767,8.767,0,1,1,0,17.533Z" transform="translate(-556.58 -254.296)" fill="#e6e6e6"/><path d="M725.174,340.265H642.987a8.767,8.767,0,0,1,0-17.533h82.187a8.767,8.767,0,0,1,0,17.533Z" transform="translate(-559.346 -238.42)" fill="#6c63ff"/><circle cx="11.973" cy="11.973" r="11.973" transform="translate(199.157 266.14)" fill="#e6e6e6"/><path d="M728.36,584.175H613.987a8.767,8.767,0,1,1,0-17.533H728.36a8.767,8.767,0,0,1,0,17.533Z" transform="translate(-557.054 -257.693)" fill="#e6e6e6"/><circle cx="11.973" cy="11.973" r="11.973" transform="translate(204.682 305.742)" fill="#e6e6e6"/></g></g></svg>